<?xml version="1.0" standalone="no"?>
<!DOCTYPE svg PUBLIC "-//W3C//DTD SVG 20010904//EN"
 "http://www.w3.org/TR/2001/REC-SVG-20010904/DTD/svg10.dtd">
<svg version="1.0" xmlns="http://www.w3.org/2000/svg"
 width="512.000000pt" height="512.000000pt" viewBox="0 0 512.000000 512.000000"
 preserveAspectRatio="xMidYMid meet">

<g transform="translate(0.000000,512.000000) scale(0.100000,-0.100000)"
fill="#000000" stroke="none">
<path d="M4435 5044 c-423 -53 -2015 -254 -3090 -389 -945 -119 -1002 -127
-1049 -153 -57 -30 -110 -94 -126 -150 -6 -22 -10 -165 -10 -348 0 -338 3
-360 56 -430 34 -44 99 -82 155 -92 l44 -8 3 -1455 2 -1456 -107 -5 c-128 -6
-184 -27 -239 -91 -128 -151 -42 -380 156 -417 38 -7 821 -9 2365 -8 2191 3
2312 4 2349 21 64 28 99 61 131 118 51 94 38 210 -34 292 -53 60 -108 80 -233
85 l-108 5 2 1456 3 1455 44 8 c89 15 168 86 199 177 9 24 12 201 12 616 0
638 0 634 -60 707 -33 40 -115 83 -170 91 -19 2 -152 -11 -295 -29z m165
-3029 l0 -1455 -1060 0 -1060 0 0 105 0 105 864 2 864 3 43 30 c24 17 57 50
74 74 l30 43 3 871 c2 785 1 876 -14 915 -23 61 -60 101 -119 128 l-50 24
-1575 0 c-1504 0 -1577 -1 -1615 -19 -46 -21 -98 -69 -123 -115 -16 -29 -17
-111 -20 -1098 l-2 -1068 -160 0 -160 0 0 1455 0 1455 2040 0 2040 0 0 -1455z
m-403 719 c15 -11 36 -36 45 -55 17 -32 18 -94 18 -864 0 -770 -1 -832 -18
-864 -9 -19 -30 -44 -45 -55 -28 -21 -37 -21 -873 -24 l-844 -2 0 945 0 945
844 -2 c836 -3 845 -3 873 -24z m-1827 -1079 l0 -1095 -710 0 -710 0 0 1045
c0 1155 -4 1085 63 1125 31 19 55 20 695 20 l662 0 0 -1095z m2558 -1225 c100
-61 95 -211 -8 -262 -33 -17 -166 -18 -2360 -18 -2194 0 -2327 1 -2360 18
-103 51 -108 201 -8 262 33 20 56 20 2368 20 2312 0 2335 0 2368 -20z"/>
<path d="M3177 2362 c-70 -70 -107 -115 -107 -129 0 -26 25 -53 49 -53 17 0
241 219 241 236 0 21 -33 54 -53 54 -15 0 -58 -36 -130 -108z"/>
<path d="M3352 2177 c-247 -248 -265 -270 -230 -305 35 -35 58 -18 306 231
247 247 261 266 226 301 -35 36 -54 21 -302 -227z"/>
<path d="M1129 1893 c-11 -12 -15 -65 -17 -216 -2 -111 -1 -211 2 -223 14 -53
61 -69 96 -34 19 19 20 33 20 233 0 176 -3 216 -16 235 -18 26 -65 30 -85 5z"/>
</g>
</svg>
